<?xml version="1.0" standalone="no"?>
<!DOCTYPE svg PUBLIC "-//W3C//DTD SVG 20010904//EN"
 "http://www.w3.org/TR/2001/REC-SVG-20010904/DTD/svg10.dtd">
<svg version="1.0" xmlns="http://www.w3.org/2000/svg"
 width="484.000000pt" height="592.000000pt" viewBox="0 0 484.000000 592.000000"
 preserveAspectRatio="xMidYMid meet">

<g transform="translate(0.000000,592.000000) scale(0.100000,-0.100000)"
fill="#2194c4" stroke="none">
<path d="M2145 5910 c-3 -5 -21 -10 -40 -10 -63 0 -312 -55 -445 -99 -155 -51
-443 -184 -491 -227 -8 -8 -19 -14 -23 -14 -8 0 -112 -69 -172 -116 -136 -103
-306 -263 -404 -379 -77 -91 -210 -275 -210 -291 0 -4 -6 -15 -14 -23 -20 -22
-136 -251 -170 -336 -74 -183 -156 -500 -156 -600 0 -19 -5 -37 -10 -40 -13
-8 -14 -507 -1 -549 5 -17 15 -62 21 -101 22 -136 28 -162 74 -325 42 -149
159 -420 217 -502 11 -14 19 -29 19 -32 0 -19 188 -281 242 -337 7 -8 33 -38
57 -67 53 -64 234 -225 348 -309 267 -198 616 -353 938 -417 175 -35 246 -41
495 -41 291 0 433 18 675 87 284 81 593 243 850 446 77 61 286 270 347 347
203 257 365 566 446 850 40 140 82 363 82 432 0 21 5 44 10 49 13 13 7 368 -8
469 -30 200 -37 235 -79 385 -101 358 -262 651 -528 960 -80 93 -105 118 -216
211 -267 228 -554 386 -874 483 -135 41 -186 53 -330 76 -38 6 -84 16 -101 21
-42 13 -541 12 -549 -1z m490 -265 c315 -36 550 -111 836 -268 303 -166 619
-477 794 -782 119 -206 219 -473 256 -680 69 -388 42 -755 -81 -1100 -17 -49
-34 -99 -37 -110 -10 -32 -130 -265 -171 -331 -85 -136 -174 -246 -307 -379
-126 -126 -193 -182 -334 -274 -595 -388 -1320 -462 -1976 -201 -94 37 -245
111 -285 140 -15 11 -31 20 -35 20 -7 0 -115 72 -170 114 -336 258 -584 591
-723 971 -48 133 -76 228 -92 315 -6 36 -17 88 -23 115 -17 73 -16 540 1 630
31 163 42 213 57 265 105 359 283 666 539 927 104 106 266 237 385 310 419
260 896 371 1366 318z"/>
<path d="M547 4113 c-4 -3 -7 -46 -7 -94 l0 -87 78 -7 c78 -6 242 -40 271 -56
50 -27 285 -130 336 -147 122 -41 165 -47 360 -46 226 1 304 17 485 101 41 20
107 50 145 68 121 56 230 78 390 78 161 0 214 -12 440 -103 245 -98 328 -119
500 -127 181 -8 376 33 561 117 35 17 67 30 69 30 3 0 23 11 45 25 l40 25 0
100 c0 56 -4 100 -9 100 -6 0 -59 -24 -118 -54 -214 -107 -348 -141 -548 -141
-169 0 -274 22 -430 90 -49 21 -237 91 -275 102 -95 28 -163 35 -316 31 -123
-4 -177 -10 -239 -27 -85 -24 -92 -27 -255 -104 -57 -27 -145 -63 -195 -80
-88 -29 -95 -30 -285 -31 -177 -1 -203 1 -280 23 -47 13 -141 51 -210 83 -190
90 -219 101 -338 124 -77 15 -204 19 -215 7z"/>
<path d="M547 3743 c-11 -10 -8 -171 2 -178 5 -3 61 -12 123 -19 130 -17 218
-44 373 -116 61 -28 119 -55 130 -60 201 -83 557 -85 790 -5 50 17 149 61 215
95 136 70 373 111 523 89 112 -16 164 -30 292 -79 341 -131 452 -157 632 -147
180 10 346 55 541 147 l102 49 0 95 c0 54 -4 98 -10 101 -6 4 -30 -4 -53 -18
-100 -58 -268 -122 -409 -156 -99 -24 -304 -29 -385 -10 -112 27 -262 78 -370
125 -133 59 -276 88 -433 88 -199 0 -325 -29 -506 -114 -223 -106 -319 -129
-529 -130 -131 0 -227 13 -320 44 -56 19 -52 17 -189 81 -167 78 -273 106
-442 119 -39 3 -74 3 -77 -1z"/>
<path d="M547 3363 c-4 -3 -7 -41 -7 -84 0 -91 7 -99 87 -99 107 0 249 -40
408 -115 118 -55 252 -98 353 -114 163 -25 407 -8 550 38 64 21 79 27 212 89
162 75 286 104 455 105 134 1 259 -27 425 -93 254 -102 373 -130 552 -130 70
0 151 5 180 11 164 32 279 70 413 135 l80 39 3 98 c1 54 -1 97 -6 97 -5 0 -56
-22 -113 -49 -257 -121 -458 -162 -660 -136 -130 17 -181 32 -429 125 -208 78
-237 84 -450 84 -156 0 -207 -4 -255 -18 -33 -9 -73 -21 -90 -25 -29 -8 -59
-20 -195 -83 -196 -90 -254 -103 -475 -103 -224 0 -296 15 -482 101 -134 61
-162 73 -228 93 -112 33 -309 54 -328 34z"/>
<path d="M632 532 c-30 -16 -61 -41 -72 -60 -28 -45 -26 -110 3 -143 35 -41
59 -49 227 -79 132 -23 166 -37 181 -77 32 -85 -139 -144 -270 -94 -59 22 -74
36 -88 76 -8 26 -15 30 -51 33 -41 3 -42 2 -42 -28 0 -52 38 -102 99 -130 14
-7 34 -16 43 -21 10 -5 71 -9 136 -9 104 0 124 3 168 24 78 38 99 67 99 136 0
90 -39 123 -175 149 -147 27 -177 34 -210 46 -33 12 -35 16 -35 56 0 41 3 45
39 63 94 46 217 25 263 -45 21 -33 31 -39 60 -39 19 0 36 6 39 14 9 23 -22 82
-57 108 -53 37 -97 48 -205 48 -88 0 -105 -3 -152 -28z"/>
<path d="M1329 537 c-125 -53 -179 -130 -179 -258 0 -117 55 -198 172 -254 46
-22 65 -25 163 -25 99 0 117 3 166 26 63 30 123 85 147 134 23 48 23 192 0
240 -25 52 -76 100 -138 129 -47 22 -72 26 -165 29 -97 2 -116 0 -166 -21z
m239 -53 c42 -12 68 -28 97 -58 85 -87 85 -205 0 -292 -111 -115 -342 -83
-401 55 -25 57 -20 151 9 198 34 54 59 73 119 94 66 23 105 23 176 3z"/>
<path d="M1922 538 c-16 -16 -17 -490 -2 -519 13 -24 65 -26 74 -3 3 9 6 103
6 210 0 162 2 194 14 194 13 0 111 -112 250 -285 96 -120 113 -135 150 -135
18 0 39 6 45 14 8 9 11 90 9 272 l-3 259 -40 0 -40 0 -3 -202 c-1 -112 -6
-203 -10 -203 -16 0 -34 21 -172 194 -8 10 -31 38 -50 61 -19 24 -55 68 -80
99 -43 53 -47 56 -90 56 -26 0 -51 -5 -58 -12z"/>
<path d="M2557 544 c-9 -9 -9 -506 -1 -528 5 -14 37 -16 250 -16 l244 0 12 24
c24 54 17 56 -207 56 l-206 0 3 88 3 87 188 3 188 2 -3 28 -3 27 -187 3 -188
2 0 80 0 80 203 2 202 3 0 30 0 30 -246 3 c-135 1 -248 -1 -252 -4z"/>
<path d="M3156 534 c-11 -28 -7 -494 4 -515 10 -17 23 -19 160 -19 88 0 151 4
155 10 3 6 17 10 30 10 42 0 131 46 157 81 51 68 62 100 62 186 0 73 -3 86
-29 129 -68 108 -140 134 -376 134 -134 0 -158 -2 -163 -16z m396 -73 c65 -41
82 -78 81 -176 -1 -105 -19 -147 -80 -185 -46 -29 -50 -30 -180 -30 l-133 0 0
210 0 210 133 0 c130 0 134 -1 179 -29z"/>
<path d="M3812 278 l3 -273 248 -3 247 -2 0 40 0 40 -200 0 -201 0 3 88 3 87
185 5 185 5 0 25 0 25 -187 3 -188 2 0 80 0 80 200 0 200 0 0 35 0 35 -250 0
-250 0 2 -272z"/>
</g>
</svg>
